<mxfile host="" modified="2020-05-24T15:21:41.060Z" agent="5.0 (X11; Linux x86_64) AppleWebKit/537.36 (KHTML, like Gecko) Code/1.45.0 Chrome/78.0.3904.130 Electron/7.2.4 Safari/537.36" version="13.1.3" etag="lrwgP8mNOWNbAz78NI_h" pages="2">
            <diagram id="diagramid" name="Diagram">
              <mxGraphModel><root><mxCell id="0"/><mxCell id="1" parent="0"/><mxCell id="2" value="ElasticBeanstalkServiceRole" style="outlineConnect=0;fontColor=#B3B3B3;gradientColor=#F54749;gradientDirection=north;fillColor=#C7131F;strokeColor=#ffffff;dashed=0;verticalLabelPosition=bottom;verticalAlign=top;align=center;html=1;fontSize=12;fontStyle=0;aspect=fixed;shape=mxgraph.aws4.resourceIcon;resIcon=mxgraph.aws4.role;" vertex="1" parent="1"><mxGeometry x="500" y="100" width="50" height="50" as="geometry"/></mxCell><mxCell id="3" value="Application" style="outlineConnect=0;fontColor=#B3B3B3;gradientColor=#F78E04;gradientDirection=north;fillColor=#D05C17;strokeColor=#ffffff;dashed=0;verticalLabelPosition=bottom;verticalAlign=top;align=center;html=1;fontSize=12;fontStyle=0;aspect=fixed;shape=mxgraph.aws4.resourceIcon;resIcon=mxgraph.aws4.elasticbeanstalk;" vertex="1" parent="1"><mxGeometry x="500" width="50" height="50" as="geometry"/></mxCell><mxCell id="4" value="ApplicationVersion" style="outlineConnect=0;fontColor=#B3B3B3;gradientColor=#F78E04;gradientDirection=north;fillColor=#D05C17;strokeColor=#ffffff;dashed=0;verticalLabelPosition=bottom;verticalAlign=top;align=center;html=1;fontSize=12;fontStyle=0;aspect=fixed;shape=mxgraph.aws4.resourceIcon;resIcon=mxgraph.aws4.elasticbeanstalk;" vertex="1" parent="1"><mxGeometry x="250" y="125" width="50" height="50" as="geometry"/></mxCell><mxCell id="5" value="Environment" style="outlineConnect=0;fontColor=#B3B3B3;gradientColor=#F78E04;gradientDirection=north;fillColor=#D05C17;strokeColor=#ffffff;dashed=0;verticalLabelPosition=bottom;verticalAlign=top;align=center;html=1;fontSize=12;fontStyle=0;aspect=fixed;shape=mxgraph.aws4.resourceIcon;resIcon=mxgraph.aws4.elasticbeanstalk;" vertex="1" parent="1"><mxGeometry y="125" width="50" height="50" as="geometry"/></mxCell><mxCell id="6" value="ConfigurationTemplate" style="outlineConnect=0;fontColor=#B3B3B3;gradientColor=#F78E04;gradientDirection=north;fillColor=#D05C17;strokeColor=#ffffff;dashed=0;verticalLabelPosition=bottom;verticalAlign=top;align=center;html=1;fontSize=12;fontStyle=0;aspect=fixed;shape=mxgraph.aws4.resourceIcon;resIcon=mxgraph.aws4.elasticbeanstalk;" vertex="1" parent="1"><mxGeometry x="250" y="225" width="50" height="50" as="geometry"/></mxCell><mxCell id="7" value="AppRole" style="outlineConnect=0;fontColor=#B3B3B3;gradientColor=#F54749;gradientDirection=north;fillColor=#C7131F;strokeColor=#ffffff;dashed=0;verticalLabelPosition=bottom;verticalAlign=top;align=center;html=1;fontSize=12;fontStyle=0;aspect=fixed;shape=mxgraph.aws4.resourceIcon;resIcon=mxgraph.aws4.role;" vertex="1" parent="1"><mxGeometry x="750" y="250" width="50" height="50" as="geometry"/></mxCell><mxCell id="8" value="AppPolicies" style="outlineConnect=0;fontColor=#B3B3B3;gradientColor=#F54749;gradientDirection=north;fillColor=#C7131F;strokeColor=#ffffff;dashed=0;verticalLabelPosition=bottom;verticalAlign=top;align=center;html=1;fontSize=12;fontStyle=0;aspect=fixed;shape=mxgraph.aws4.resourceIcon;resIcon=mxgraph.aws4.identity_and_access_management;" vertex="1" parent="1"><mxGeometry x="500" y="300" width="50" height="50" as="geometry"/></mxCell><mxCell id="9" value="AppInstanceProfile" style="outlineConnect=0;fontColor=#B3B3B3;gradientColor=#F54749;gradientDirection=north;fillColor=#C7131F;strokeColor=#ffffff;dashed=0;verticalLabelPosition=bottom;verticalAlign=top;align=center;html=1;fontSize=12;fontStyle=0;aspect=fixed;shape=mxgraph.aws4.resourceIcon;resIcon=mxgraph.aws4.identity_and_access_management;" vertex="1" parent="1"><mxGeometry x="500" y="200" width="50" height="50" as="geometry"/></mxCell><mxCell id="10" value="iam  aws&#xA;policy/service-role/awselasticbeanstalkenhancedhealth" style="outlineConnect=0;fontColor=#B3B3B3;gradientColor=#aaaaaa;gradientDirection=north;fillColor=#aaaaaa;strokeColor=#ffffff;dashed=0;verticalLabelPosition=bottom;verticalAlign=top;align=center;html=1;fontSize=12;fontStyle=0;aspect=fixed;shape=mxgraph.aws4.resourceIcon;resIcon=mxgraph.aws4.identity_and_access_management;" vertex="1" parent="1"><mxGeometry x="750" y="50" width="50" height="50" as="geometry"/></mxCell><mxCell id="11" value="iam  aws&#xA;policy/service-role/awselasticbeanstalkservice" style="outlineConnect=0;fontColor=#B3B3B3;gradientColor=#aaaaaa;gradientDirection=north;fillColor=#aaaaaa;strokeColor=#ffffff;dashed=0;verticalLabelPosition=bottom;verticalAlign=top;align=center;html=1;fontSize=12;fontStyle=0;aspect=fixed;shape=mxgraph.aws4.resourceIcon;resIcon=mxgraph.aws4.identity_and_access_management;" vertex="1" parent="1"><mxGeometry x="750" y="150" width="50" height="50" as="geometry"/></mxCell><mxCell id="iam  aws&#xA;policy/service-role/awselasticbeanstalkenhancedhealth|ElasticBeanstalkServiceRole" value="ManagedPolicyArns" style="edgeStyle=orthogonalEdgeStyle;rounded=1;orthogonalLoop=1;jettySize=auto;html=1;labelBackgroundColor=none;fontColor=#EA6B66;noEdgeStyle=1;orthogonal=1;" edge="1" parent="1" source="2" target="10"><mxGeometry relative="1" as="geometry"><Array as="points"><mxPoint x="562" y="115"/><mxPoint x="738" y="75"/></Array></mxGeometry></mxCell><mxCell id="iam  aws&#xA;policy/service-role/awselasticbeanstalkservice|ElasticBeanstalkServiceRole" value="ManagedPolicyArns" style="edgeStyle=orthogonalEdgeStyle;rounded=1;orthogonalLoop=1;jettySize=auto;html=1;labelBackgroundColor=none;fontColor=#EA6B66;noEdgeStyle=1;orthogonal=1;" edge="1" parent="1" source="2" target="11"><mxGeometry relative="1" as="geometry"><Array as="points"><mxPoint x="562" y="135"/><mxPoint x="738" y="175"/></Array></mxGeometry></mxCell><mxCell id="Application|ApplicationVersion" value="ApplicationName" style="edgeStyle=orthogonalEdgeStyle;rounded=1;orthogonalLoop=1;jettySize=auto;html=1;labelBackgroundColor=none;fontColor=#EA6B66;noEdgeStyle=1;orthogonal=1;" edge="1" parent="1" source="4" target="3"><mxGeometry relative="1" as="geometry"><Array as="points"><mxPoint x="312" y="150"/><mxPoint x="486" y="25"/></Array></mxGeometry></mxCell><mxCell id="Application|Environment" value="ApplicationName" style="edgeStyle=orthogonalEdgeStyle;rounded=1;orthogonalLoop=1;jettySize=auto;html=1;labelBackgroundColor=none;fontColor=#EA6B66;noEdgeStyle=1;orthogonal=1;" edge="1" parent="1" source="5" target="3"><mxGeometry relative="1" as="geometry"><Array as="points"><mxPoint x="62" y="136.66666666666666"/><mxPoint x="150" y="75"/><mxPoint x="400" y="75"/><mxPoint x="488" y="11.666666666666668"/></Array></mxGeometry></mxCell><mxCell id="ConfigurationTemplate|Environment" value="TemplateName" style="edgeStyle=orthogonalEdgeStyle;rounded=1;orthogonalLoop=1;jettySize=auto;html=1;labelBackgroundColor=none;fontColor=#EA6B66;noEdgeStyle=1;orthogonal=1;" edge="1" parent="1" source="5" target="6"><mxGeometry relative="1" as="geometry"><Array as="points"><mxPoint x="62" y="163.33333333333334"/><mxPoint x="238" y="250"/></Array></mxGeometry></mxCell><mxCell id="ApplicationVersion|Environment" value="VersionLabel" style="edgeStyle=orthogonalEdgeStyle;rounded=1;orthogonalLoop=1;jettySize=auto;html=1;labelBackgroundColor=none;fontColor=#EA6B66;noEdgeStyle=1;orthogonal=1;" edge="1" parent="1" source="5" target="4"><mxGeometry relative="1" as="geometry"><Array as="points"><mxPoint x="64" y="150"/><mxPoint x="238" y="150"/></Array></mxGeometry></mxCell><mxCell id="Application|ConfigurationTemplate" value="ApplicationName" style="edgeStyle=orthogonalEdgeStyle;rounded=1;orthogonalLoop=1;jettySize=auto;html=1;labelBackgroundColor=none;fontColor=#EA6B66;noEdgeStyle=1;orthogonal=1;" edge="1" parent="1" source="6" target="3"><mxGeometry relative="1" as="geometry"><Array as="points"><mxPoint x="312" y="236.66666666666666"/><mxPoint x="488" y="38.333333333333336"/></Array></mxGeometry></mxCell><mxCell id="ElasticBeanstalkServiceRole|ConfigurationTemplate" value="Value" style="edgeStyle=orthogonalEdgeStyle;rounded=1;orthogonalLoop=1;jettySize=auto;html=1;labelBackgroundColor=none;fontColor=#EA6B66;noEdgeStyle=1;orthogonal=1;" edge="1" parent="1" source="6" target="2"><mxGeometry relative="1" as="geometry"><Array as="points"><mxPoint x="314" y="250"/><mxPoint x="488" y="125"/></Array></mxGeometry></mxCell><mxCell id="AppInstanceProfile|ConfigurationTemplate" value="Value" style="edgeStyle=orthogonalEdgeStyle;rounded=1;orthogonalLoop=1;jettySize=auto;html=1;labelBackgroundColor=none;fontColor=#EA6B66;noEdgeStyle=1;orthogonal=1;" edge="1" parent="1" source="6" target="9"><mxGeometry relative="1" as="geometry"><Array as="points"><mxPoint x="312" y="263.3333333333333"/><mxPoint x="488" y="225"/></Array></mxGeometry></mxCell><mxCell id="AppRole|AppPolicies" value="Roles" style="edgeStyle=orthogonalEdgeStyle;rounded=1;orthogonalLoop=1;jettySize=auto;html=1;labelBackgroundColor=none;fontColor=#EA6B66;noEdgeStyle=1;orthogonal=1;" edge="1" parent="1" source="8" target="7"><mxGeometry relative="1" as="geometry"><Array as="points"><mxPoint x="562" y="325"/><mxPoint x="738" y="285"/></Array></mxGeometry></mxCell><mxCell id="AppRole|AppInstanceProfile" value="Roles" style="edgeStyle=orthogonalEdgeStyle;rounded=1;orthogonalLoop=1;jettySize=auto;html=1;labelBackgroundColor=none;fontColor=#EA6B66;noEdgeStyle=1;orthogonal=1;" edge="1" parent="1" source="9" target="7"><mxGeometry relative="1" as="geometry"><Array as="points"><mxPoint x="562" y="225"/><mxPoint x="738" y="265"/></Array></mxGeometry></mxCell></root></mxGraphModel>
            </diagram>
          </mxfile>